<svg xmlns="http://www.w3.org/2000/svg" width="430" height="932" viewBox="0 0 430 932" fill="none">
  <rect width="430" height="932" rx="40" fill="#070B12"/>
  <rect x="18" y="18" width="394" height="896" rx="34" fill="#0A111A"/>

  <rect x="30" y="34" width="370" height="86" rx="24" fill="#0E1521" stroke="#1C2736"/>
  <rect x="46" y="50" width="54" height="54" rx="16" fill="#111A28"/>
  <path d="M60 89L71 62H91L75 78H90L79 89H60Z" fill="url(#zg)"/>
  <text x="116" y="78" fill="#F8FAFC" font-size="32" font-family="Arial, sans-serif" font-weight="800">ZBet</text>
  <text x="116" y="101" fill="#92A0B1" font-size="12" font-family="Arial, sans-serif" letter-spacing="3">SMARTER FOOTBALL PICKS</text>

  <rect x="30" y="136" width="370" height="60" rx="22" fill="#111A28" stroke="#1F2A39"/>
  <rect x="38" y="144" width="176" height="44" rx="16" fill="#852D38"/>
  <text x="96" y="172" fill="#FFFFFF" font-size="17" font-family="Arial, sans-serif" font-weight="800">Meciuri</text>
  <text x="276" y="172" fill="#D9E0E9" font-size="17" font-family="Arial, sans-serif" font-weight="700">Istoric</text>

  <rect x="30" y="214" width="370" height="132" rx="26" fill="#0D141F" stroke="#1C2736"/>
  <text x="48" y="240" fill="#C6D1DF" font-size="11" font-family="Arial, sans-serif" letter-spacing="1.4">EVENIMENT</text>
  <text x="48" y="268" fill="#FFFFFF" font-size="22" font-family="Arial, sans-serif" font-weight="800">Wisla Krakow vs Gornik Leczna</text>
  <text x="48" y="289" fill="#90A0B4" font-size="12" font-family="Arial, sans-serif">Poland • Liga 1 • 20:00</text>
  <text x="48" y="309" fill="#90A0B4" font-size="12" font-family="Arial, sans-serif">Forma si recomandari intr-un layout mai simplu si mai clar</text>
  <rect x="48" y="319" width="104" height="14" rx="7" fill="#182232"/>
  <rect x="48" y="319" width="62" height="14" rx="7" fill="#B03945"/>

  <rect x="30" y="366" width="370" height="108" rx="26" fill="#112417" stroke="#214934"/>
  <text x="48" y="392" fill="#D6FBE4" font-size="11" font-family="Arial, sans-serif" letter-spacing="1.4">BEST BET</text>
  <text x="48" y="423" fill="#FFFFFF" font-size="26" font-family="Arial, sans-serif" font-weight="900">1X</text>
  <text x="48" y="444" fill="#CFEBDD" font-size="12" font-family="Arial, sans-serif">Echilibru mai bun intre risc, forma si piata</text>
  <rect x="312" y="388" width="70" height="40" rx="15" fill="#173A28"/>
  <text x="328" y="414" fill="#E7FFF0" font-size="19" font-family="Arial, sans-serif" font-weight="900">73%</text>

  <rect x="30" y="488" width="370" height="86" rx="24" fill="#171622" stroke="#37344B"/>
  <text x="48" y="514" fill="#DDD7FA" font-size="11" font-family="Arial, sans-serif" letter-spacing="1.4">PLAN B</text>
  <text x="48" y="544" fill="#FFFFFF" font-size="21" font-family="Arial, sans-serif" font-weight="800">Sub 3.5</text>
  <text x="48" y="562" fill="#B8B2CF" font-size="12" font-family="Arial, sans-serif">Alternativa mai prudenta, dar clar secundara</text>
  <rect x="314" y="507" width="68" height="36" rx="15" fill="#262337"/>
  <text x="330" y="531" fill="#F0EAFF" font-size="17" font-family="Arial, sans-serif" font-weight="900">61%</text>

  <rect x="30" y="590" width="370" height="88" rx="24" fill="#0D141F" stroke="#1C2736"/>
  <text x="48" y="618" fill="#D7E1ED" font-size="18" font-family="Arial, sans-serif" font-weight="800">Alternative bune</text>
  <text x="48" y="642" fill="#93A2B8" font-size="12" font-family="Arial, sans-serif">Ascuns implicit, se extinde doar la tap</text>
  <circle cx="366" cy="622" r="16" fill="#141E2D"/>
  <path d="M360 619L366 625L372 619" stroke="#FFFFFF" stroke-width="2" stroke-linecap="round" stroke-linejoin="round"/>

  <rect x="30" y="694" width="370" height="170" rx="26" fill="#0D141F" stroke="#1C2736"/>
  <text x="48" y="722" fill="#D7E1ED" font-size="18" font-family="Arial, sans-serif" font-weight="800">Istoric pe zi</text>
  <text x="48" y="746" fill="#93A2B8" font-size="12" font-family="Arial, sans-serif">Sumar premium, usor de scanat si de inteles</text>

  <rect x="48" y="760" width="158" height="82" rx="18" fill="#101927" stroke="#22324A"/>
  <text x="62" y="784" fill="#9AA8BB" font-size="11" font-family="Arial, sans-serif" letter-spacing="1.3">RATA VALIDATA</text>
  <text x="62" y="820" fill="#FFFFFF" font-size="34" font-family="Arial, sans-serif" font-weight="900">64%</text>

  <rect x="218" y="760" width="72" height="36" rx="14" fill="#14301F"/>
  <text x="236" y="783" fill="#D9FCEB" font-size="14" font-family="Arial, sans-serif" font-weight="800">4</text>
  <text x="248" y="783" fill="#D9FCEB" font-size="10" font-family="Arial, sans-serif">Corecte</text>

  <rect x="298" y="760" width="72" height="36" rx="14" fill="#38151A"/>
  <text x="316" y="783" fill="#FFD8DD" font-size="14" font-family="Arial, sans-serif" font-weight="800">2</text>
  <text x="328" y="783" fill="#FFD8DD" font-size="10" font-family="Arial, sans-serif">Gresite</text>

  <rect x="218" y="806" width="152" height="36" rx="14" fill="#241F33"/>
  <text x="236" y="829" fill="#E7DFFF" font-size="14" font-family="Arial, sans-serif" font-weight="800">1 indisponibila</text>

  <defs>
    <linearGradient id="zg" x1="60" y1="62" x2="92" y2="90" gradientUnits="userSpaceOnUse">
      <stop stop-color="#FF6B62"/>
      <stop offset="0.55" stop-color="#C791FF"/>
      <stop offset="1" stop-color="#5CC7FF"/>
    </linearGradient>
  </defs>
</svg>
