<svg xmlns="http://www.w3.org/2000/svg" width="430" height="932" viewBox="0 0 430 932" fill="none">
  <rect width="430" height="932" rx="40" fill="#090D14"/>
  <rect x="18" y="18" width="394" height="896" rx="34" fill="url(#bg)"/>

  <rect x="34" y="42" width="362" height="92" rx="26" fill="#0D1420" stroke="#1E293C"/>
  <rect x="52" y="58" width="58" height="58" rx="18" fill="#131C2A"/>
  <path d="M66 101L77 74H100L82 92H98L86 101H66Z" fill="url(#zgrad)"/>
  <text x="128" y="82" fill="#F8FAFC" font-size="34" font-family="Arial, sans-serif" font-weight="800">ZBet</text>
  <text x="128" y="108" fill="#9AA4B2" font-size="13" font-family="Arial, sans-serif" letter-spacing="4">SMARTER FOOTBALL PICKS</text>

  <rect x="34" y="154" width="362" height="66" rx="24" fill="#131B28" stroke="#232D3F"/>
  <rect x="42" y="162" width="172" height="50" rx="18" fill="url(#tabred)"/>
  <text x="98" y="194" fill="#FFFFFF" font-size="17" font-family="Arial, sans-serif" font-weight="800">Meciuri</text>
  <text x="276" y="194" fill="#D7DEE7" font-size="17" font-family="Arial, sans-serif" font-weight="700">Istoric</text>

  <rect x="34" y="242" width="362" height="74" rx="22" fill="#0E1521" stroke="#20293A"/>
  <text x="54" y="268" fill="#D7E1ED" font-size="13" font-family="Arial, sans-serif" font-weight="700">2 aprilie 2026</text>
  <text x="54" y="293" fill="#93A2B8" font-size="12" font-family="Arial, sans-serif">11 meciuri • Toate ligile</text>
  <rect x="310" y="255" width="68" height="46" rx="16" fill="#161F2C"/>
  <text x="329" y="284" fill="#FFFFFF" font-size="16" font-family="Arial, sans-serif" font-weight="800">Data</text>

  <rect x="34" y="338" width="362" height="262" rx="26" fill="#0D131D" stroke="#1F2937"/>
  <rect x="48" y="352" width="334" height="72" rx="18" fill="#131B28"/>
  <text x="64" y="378" fill="#B4C2D3" font-size="11" font-family="Arial, sans-serif" letter-spacing="1.4">EVENIMENT</text>
  <text x="64" y="401" fill="#FFFFFF" font-size="21" font-family="Arial, sans-serif" font-weight="800">Fluminense vs Corinthians</text>
  <text x="64" y="419" fill="#8FA0B4" font-size="12" font-family="Arial, sans-serif">03:30 • Brazil • Brasileiro Serie A</text>

  <rect x="48" y="438" width="334" height="86" rx="20" fill="url(#bestbg)" stroke="#225B3E"/>
  <text x="64" y="462" fill="#D9FCEB" font-size="11" font-family="Arial, sans-serif" letter-spacing="1.4">BEST BET</text>
  <text x="64" y="490" fill="#FFFFFF" font-size="24" font-family="Arial, sans-serif" font-weight="800">1X</text>
  <text x="64" y="511" fill="#CFEBDD" font-size="12" font-family="Arial, sans-serif">Varianta principala pentru echilibru intre risc si stabilitate</text>
  <rect x="302" y="454" width="64" height="36" rx="14" fill="#173E2A"/>
  <text x="317" y="478" fill="#D9FCEB" font-size="17" font-family="Arial, sans-serif" font-weight="800">72%</text>

  <rect x="48" y="536" width="334" height="62" rx="18" fill="url(#planbg)" stroke="#3B3552"/>
  <text x="64" y="560" fill="#DCD7F8" font-size="11" font-family="Arial, sans-serif" letter-spacing="1.4">PLAN B</text>
  <text x="64" y="584" fill="#FFFFFF" font-size="18" font-family="Arial, sans-serif" font-weight="800">Ambele marcheaza</text>
  <rect x="304" y="549" width="62" height="34" rx="14" fill="#27223B"/>
  <text x="319" y="572" fill="#E6E0FF" font-size="16" font-family="Arial, sans-serif" font-weight="800">64%</text>

  <rect x="34" y="620" width="362" height="122" rx="24" fill="#0D131D" stroke="#1F2937"/>
  <text x="54" y="648" fill="#D7E1ED" font-size="18" font-family="Arial, sans-serif" font-weight="800">Alternative bune</text>
  <text x="54" y="673" fill="#8EA0B4" font-size="12" font-family="Arial, sans-serif">Atinge pentru extindere sau compara direct cu pariul principal</text>
  <rect x="54" y="692" width="322" height="34" rx="14" fill="#131B28"/>
  <text x="68" y="714" fill="#FFFFFF" font-size="13" font-family="Arial, sans-serif">Sub 3.5 • 61% • cota 1.44</text>

  <rect x="34" y="764" width="362" height="118" rx="24" fill="#0D131D" stroke="#1F2937"/>
  <text x="54" y="792" fill="#D7E1ED" font-size="18" font-family="Arial, sans-serif" font-weight="800">Istoric rapid</text>
  <text x="54" y="817" fill="#8EA0B4" font-size="12" font-family="Arial, sans-serif">7 recomandari • 4 corecte • 2 gresite • 1 indisponibila</text>
  <rect x="54" y="834" width="88" height="30" rx="14" fill="#123121"/>
  <text x="80" y="854" fill="#D9FCEB" font-size="12" font-family="Arial, sans-serif" font-weight="800">Corect</text>
  <rect x="152" y="834" width="88" height="30" rx="14" fill="#3B171B"/>
  <text x="180" y="854" fill="#FFD9DD" font-size="12" font-family="Arial, sans-serif" font-weight="800">Gresit</text>
  <rect x="250" y="834" width="108" height="30" rx="14" fill="#2A2337"/>
  <text x="275" y="854" fill="#E8DFFF" font-size="12" font-family="Arial, sans-serif" font-weight="800">Indisponibil</text>

  <defs>
    <linearGradient id="bg" x1="215" y1="18" x2="215" y2="914" gradientUnits="userSpaceOnUse">
      <stop stop-color="#0A1018"/>
      <stop offset="1" stop-color="#090D14"/>
    </linearGradient>
    <linearGradient id="zgrad" x1="66" y1="74" x2="102" y2="103" gradientUnits="userSpaceOnUse">
      <stop stop-color="#FF645F"/>
      <stop offset="0.55" stop-color="#C48FFF"/>
      <stop offset="1" stop-color="#4FC3FF"/>
    </linearGradient>
    <linearGradient id="tabred" x1="42" y1="162" x2="214" y2="212" gradientUnits="userSpaceOnUse">
      <stop stop-color="#A3343E"/>
      <stop offset="1" stop-color="#6E2730"/>
    </linearGradient>
    <linearGradient id="bestbg" x1="48" y1="438" x2="382" y2="524" gradientUnits="userSpaceOnUse">
      <stop stop-color="#103220"/>
      <stop offset="1" stop-color="#0F2218"/>
    </linearGradient>
    <linearGradient id="planbg" x1="48" y1="536" x2="382" y2="598" gradientUnits="userSpaceOnUse">
      <stop stop-color="#201A32"/>
      <stop offset="1" stop-color="#15131F"/>
    </linearGradient>
  </defs>
</svg>
