<svg width="512" height="512" viewBox="0 0 512 512" fill="none" xmlns="http://www.w3.org/2000/svg">
  <rect width="512" height="512" rx="112" fill="#090C11"/>
  <rect x="18" y="18" width="476" height="476" rx="96" fill="url(#bg)" stroke="rgba(255,255,255,0.06)"/>
  <rect x="86" y="86" width="276" height="276" rx="66" fill="#10161F" stroke="rgba(255,255,255,0.05)"/>
  <circle cx="224" cy="224" r="142" stroke="#183245" stroke-width="4" opacity="0.68"/>
  <path d="M137 138H307L188 215H309L230 291H103L225 215H137V138Z" fill="url(#zFill)"/>
  <path d="M286 118C327 136 358 165 375 205" stroke="#FF545D" stroke-width="16" stroke-linecap="round"/>
  <circle cx="383" cy="228" r="38" fill="#10161F" stroke="#FF545D" stroke-width="12"/>
  <circle cx="383" cy="228" r="14" fill="#FF545D"/>
  <path d="M220 286L330 176" stroke="url(#flare)" stroke-width="18" stroke-linecap="round"/>
  <defs>
    <linearGradient id="bg" x1="60" y1="44" x2="446" y2="454" gradientUnits="userSpaceOnUse">
      <stop stop-color="#131A24"/>
      <stop offset="1" stop-color="#0B1017"/>
    </linearGradient>
    <linearGradient id="zFill" x1="103" y1="138" x2="309" y2="291" gradientUnits="userSpaceOnUse">
      <stop stop-color="#FF6469"/>
      <stop offset="1" stop-color="#BE1E31"/>
    </linearGradient>
    <linearGradient id="flare" x1="220" y1="286" x2="330" y2="176" gradientUnits="userSpaceOnUse">
      <stop stop-color="#FF6469"/>
      <stop offset="0.52" stop-color="#C98FE7"/>
      <stop offset="1" stop-color="#48C9FF"/>
    </linearGradient>
  </defs>
</svg>
