<svg width="512" height="512" viewBox="0 0 512 512" fill="none" xmlns="http://www.w3.org/2000/svg">
  <rect width="512" height="512" rx="112" fill="#070A0E"/>
  <rect x="20" y="20" width="472" height="472" rx="96" fill="url(#bg)" stroke="#FFFFFF" stroke-opacity="0.06"/>
  <path d="M150 310C168 252 222 210 286 210C344 210 387 243 405 294" stroke="#E53C46" stroke-width="26" stroke-linecap="round"/>
  <path d="M338 132H425V248" stroke="#F3F4EF" stroke-width="26" stroke-linecap="round" stroke-linejoin="round"/>
  <path d="M338 162H404V248" stroke="rgba(243,244,239,0.25)" stroke-width="12" stroke-linecap="round"/>
  <circle cx="171" cy="287" r="53" fill="url(#ball)"/>
  <path d="M146 287L158 267H184L196 287L184 307H158L146 287Z" fill="#141A22" fill-opacity="0.88"/>
  <path d="M171 234L184 248L180 268H162L158 248L171 234Z" fill="#141A22" fill-opacity="0.74"/>
  <path d="M142 270L156 279L154 298L138 307L125 296L127 278L142 270Z" fill="#141A22" fill-opacity="0.72"/>
  <path d="M200 270L214 278L216 296L203 307L187 298L185 279L200 270Z" fill="#141A22" fill-opacity="0.72"/>
  <circle cx="328" cy="303" r="56" stroke="#16C66A" stroke-width="18"/>
  <circle cx="328" cy="303" r="23" stroke="#F3F4EF" stroke-width="12"/>
  <path d="M144 160C177 131 215 118 261 118C314 118 357 137 390 172" stroke="#E53C46" stroke-width="16" stroke-linecap="round" opacity="0.9"/>
  <path d="M286 355L374 355" stroke="#F3F4EF" stroke-width="18" stroke-linecap="round" opacity="0.92"/>
  <path d="M286 386L352 386" stroke="#F3F4EF" stroke-width="14" stroke-linecap="round" opacity="0.68"/>
  <defs>
    <linearGradient id="bg" x1="72" y1="58" x2="442" y2="460" gradientUnits="userSpaceOnUse">
      <stop stop-color="#1D0F14"/>
      <stop offset="0.45" stop-color="#0E131A"/>
      <stop offset="1" stop-color="#071017"/>
    </linearGradient>
    <radialGradient id="ball" cx="0" cy="0" r="1" gradientUnits="userSpaceOnUse" gradientTransform="translate(154 254) rotate(47.5) scale(104.423)">
      <stop stop-color="#FFFFFF"/>
      <stop offset="0.5" stop-color="#E8EDF2"/>
      <stop offset="1" stop-color="#9AA4AE"/>
    </radialGradient>
  </defs>
</svg>
