<svg xmlns="http://www.w3.org/2000/svg" width="900" height="1800" viewBox="0 0 900 1800" fill="none">
  <rect width="900" height="1800" fill="#070A10"/>
  <rect x="28" y="28" width="844" height="146" rx="34" fill="#0D121A" stroke="#222C38"/>
  <rect x="58" y="58" width="82" height="82" rx="24" fill="#111927"/>
  <text x="168" y="102" fill="#F5F7FA" font-family="Arial, sans-serif" font-size="54" font-weight="700">ZBet</text>
  <text x="170" y="138" fill="#93A0B2" font-family="Arial, sans-serif" font-size="20" letter-spacing="7">SMARTER FOOTBALL PICKS</text>
  <rect x="560" y="54" width="272" height="68" rx="28" fill="#171F2A"/>
  <rect x="568" y="62" width="134" height="52" rx="22" fill="#842932"/>
  <text x="608" y="96" fill="#FFF6F6" font-family="Arial, sans-serif" font-size="24" font-weight="700">Meciuri</text>
  <text x="731" y="96" fill="#E8EDF3" font-family="Arial, sans-serif" font-size="24" font-weight="700">Focus</text>

  <rect x="28" y="204" width="844" height="220" rx="32" fill="#0D121A" stroke="#1E2733"/>
  <text x="58" y="252" fill="#D5A5A9" font-family="Arial, sans-serif" font-size="18" font-weight="700" letter-spacing="2">FOCUSUL ZILEI</text>
  <text x="58" y="302" fill="#F6F8FB" font-family="Arial, sans-serif" font-size="42" font-weight="700">3 moduri de a aborda ziua</text>
  <text x="58" y="344" fill="#93A0B2" font-family="Arial, sans-serif" font-size="24">Conservator, Echilibrat si Curajos. Acelasi feed, 3 feluri de a-l grupa.</text>
  <text x="58" y="382" fill="#D3B3B6" font-family="Arial, sans-serif" font-size="22">Mai multe meciuri favorizeaza azi golurile si BTTS.</text>

  <rect x="28" y="452" width="844" height="334" rx="30" fill="#101720" stroke="#1C2733"/>
  <rect x="54" y="478" width="150" height="34" rx="17" fill="#1E7A4B"/>
  <text x="82" y="501" fill="#F1FFF7" font-family="Arial, sans-serif" font-size="18" font-weight="700">Conservator</text>
  <text x="54" y="548" fill="#F4F7FA" font-family="Arial, sans-serif" font-size="34" font-weight="700">Selecții prudente, probabilitate mai buna</text>
  <text x="54" y="586" fill="#93A0B2" font-family="Arial, sans-serif" font-size="22">Mix construit pentru o zi stabila, cu leg-uri mai curate si risc mai mic.</text>
  <rect x="54" y="620" width="792" height="60" rx="18" fill="#151D27"/>
  <text x="78" y="657" fill="#F5F7FA" font-family="Arial, sans-serif" font-size="22" font-weight="700">Fluminense vs Corinthians</text>
  <text x="550" y="657" fill="#9BE0B7" font-family="Arial, sans-serif" font-size="22">Peste 1.5 goluri</text>
  <text x="769" y="657" fill="#F2F7FB" font-family="Arial, sans-serif" font-size="22" font-weight="700">1.31</text>
  <rect x="54" y="690" width="792" height="60" rx="18" fill="#151D27"/>
  <text x="78" y="727" fill="#F5F7FA" font-family="Arial, sans-serif" font-size="22" font-weight="700">Braga vs Boavista</text>
  <text x="558" y="727" fill="#9BE0B7" font-family="Arial, sans-serif" font-size="22">Ambele marcheaza</text>
  <text x="769" y="727" fill="#F2F7FB" font-family="Arial, sans-serif" font-size="22" font-weight="700">1.48</text>

  <rect x="28" y="818" width="844" height="334" rx="30" fill="#101720" stroke="#1C2733"/>
  <rect x="54" y="844" width="140" height="34" rx="17" fill="#265A8F"/>
  <text x="82" y="867" fill="#F4FAFF" font-family="Arial, sans-serif" font-size="18" font-weight="700">Echilibrat</text>
  <text x="54" y="914" fill="#F4F7FA" font-family="Arial, sans-serif" font-size="34" font-weight="700">Cel mai bun raport intre cota si risc</text>
  <text x="54" y="952" fill="#93A0B2" font-family="Arial, sans-serif" font-size="22">Selecții mai variate, gandite pentru utilizatorul care vrea valoare, nu doar prudenta.</text>
  <rect x="54" y="986" width="792" height="60" rx="18" fill="#151D27"/>
  <text x="78" y="1023" fill="#F5F7FA" font-family="Arial, sans-serif" font-size="22" font-weight="700">Mainz vs Freiburg</text>
  <text x="585" y="1023" fill="#8EC1FF" font-family="Arial, sans-serif" font-size="22">Victorie gazde</text>
  <text x="769" y="1023" fill="#F2F7FB" font-family="Arial, sans-serif" font-size="22" font-weight="700">1.72</text>
  <rect x="54" y="1056" width="792" height="60" rx="18" fill="#151D27"/>
  <text x="78" y="1093" fill="#F5F7FA" font-family="Arial, sans-serif" font-size="22" font-weight="700">PSV vs AZ</text>
  <text x="580" y="1093" fill="#8EC1FF" font-family="Arial, sans-serif" font-size="22">Peste 2.5 goluri</text>
  <text x="769" y="1093" fill="#F2F7FB" font-family="Arial, sans-serif" font-size="22" font-weight="700">1.66</text>

  <rect x="28" y="1184" width="844" height="334" rx="30" fill="#101720" stroke="#1C2733"/>
  <rect x="54" y="1210" width="128" height="34" rx="17" fill="#6E4C97"/>
  <text x="90" y="1233" fill="#F9F3FF" font-family="Arial, sans-serif" font-size="18" font-weight="700">Curajos</text>
  <text x="54" y="1280" fill="#F4F7FA" font-family="Arial, sans-serif" font-size="34" font-weight="700">Varianta mai agresiva, dar inca controlata</text>
  <text x="54" y="1318" fill="#93A0B2" font-family="Arial, sans-serif" font-size="22">Cand vrei o cota mai buna, fara sa cazi in selectie haotica.</text>
  <rect x="54" y="1352" width="792" height="60" rx="18" fill="#151D27"/>
  <text x="78" y="1389" fill="#F5F7FA" font-family="Arial, sans-serif" font-size="22" font-weight="700">Al Hilal vs Al Ahli</text>
  <text x="554" y="1389" fill="#DABAF8" font-family="Arial, sans-serif" font-size="22">Peste 3.5 goluri</text>
  <text x="769" y="1389" fill="#F2F7FB" font-family="Arial, sans-serif" font-size="22" font-weight="700">2.05</text>
  <rect x="54" y="1422" width="792" height="60" rx="18" fill="#151D27"/>
  <text x="78" y="1459" fill="#F5F7FA" font-family="Arial, sans-serif" font-size="22" font-weight="700">Club America vs Monterrey</text>
  <text x="580" y="1459" fill="#DABAF8" font-family="Arial, sans-serif" font-size="22">Ambele marcheaza</text>
  <text x="769" y="1459" fill="#F2F7FB" font-family="Arial, sans-serif" font-size="22" font-weight="700">1.92</text>
</svg>
